<svg width="2008" height="983" viewBox="0 0 2008 983" fill="none" xmlns="http://www.w3.org/2000/svg">
<path fill-rule="evenodd" clip-rule="evenodd" d="M727.885 381.087L660.365 329.053L658.402 327.536H568.658L566.65 329.053L548.309 343.199L529.7 328.83L527.692 327.312H437.993L435.985 328.83L368.51 380.909L365.609 383.095V482.21L367.127 484.174L387.075 510.28L367.127 536.342L365.609 538.349V598.461L368.51 600.692L435.985 652.726L437.993 654.288H527.692L529.7 652.726L548.041 638.58L566.65 652.949L568.658 654.511H658.402L660.365 652.949L727.885 600.915L730.741 598.684V538.573L729.224 536.565L709.276 510.503L729.224 484.397L730.741 482.433V383.318L727.885 381.087ZM433.084 631.797L380.426 591.187V543.348L402.292 514.787L405.729 510.324L402.292 505.862L380.426 477.256V401.794L433.084 442.448V631.797ZM517.874 639.472H447.99V446.197H517.874V639.472ZM563.884 632.02L552.638 623.362L548.175 619.882L543.713 623.362L532.735 631.797V442.448L548.22 430.488L563.973 442.671L563.884 632.02ZM648.673 639.696H578.833V446.42H648.673V639.696ZM653.582 431.604H573.925L560.537 421.161L605.118 386.755L597.532 380.909L575.219 363.861L563.08 373.188L580.663 386.576L552.459 408.353L547.996 411.611L535.858 420.983L522.47 431.202H442.858L384.844 386.576L442.858 341.95H522.47L535.858 352.392L498.819 380.909L491.232 386.799L498.819 392.645L521.132 409.692L533.27 400.365L515.687 386.978L560.358 352.571L573.746 342.351H653.404L711.418 386.978L653.582 431.604ZM716.059 477.39L694.192 505.996L690.756 510.458L694.192 514.921L716.059 543.482V591.321L663.4 631.931V442.671L716.059 402.017V477.39Z" fill="#0CC2FF"/>
<path d="M825.616 356.989L811.068 371.537V458.692L825.616 473.24H888.494L903.042 458.692V434.415H885.549V451.507L881.31 455.747H832.756L828.561 451.507V378.677L832.756 374.438H881.31L885.549 378.677V395.814H903.042V371.537L888.494 356.989H825.616Z" fill="#00232F"/>
<path d="M934.236 356.989V473.24H951.685V434.415H962.752L1001.53 473.24H1026.21L987.386 434.415H1011.66L1026.21 419.867V371.492L1011.66 356.989H934.236ZM1008.72 412.727L1004.48 416.922H951.685V374.438H1004.48L1008.72 378.9V412.727Z" fill="#00232F"/>
<path d="M1071.91 356.989L1057.4 371.492V458.692L1071.91 473.24H1134.83L1149.33 458.692V371.492L1134.83 356.989H1071.91ZM1131.89 451.507L1127.65 455.747H1079.32L1074.85 451.507V378.633L1079.32 374.17H1127.87L1132.11 378.633L1131.89 451.507Z" fill="#00232F"/>
<path d="M1195.08 356.989L1180.53 371.537V406.836L1195.08 421.34H1250.81L1255.05 425.579V451.507L1250.81 455.747H1202.26L1198.02 451.507V439.369H1180.53V458.692L1195.08 473.24H1258L1272.5 458.692V418.439L1258 403.891H1202.26L1198.02 399.651V378.677L1202.26 374.438H1250.81L1255.05 378.677V390.816H1272.5V371.537L1258 356.989H1195.08Z" fill="#00232F"/>
<path d="M1318.24 356.989L1303.7 371.537V406.836L1318.24 421.34H1373.98L1378.18 425.579V451.507L1373.98 455.747H1325.43L1321.19 451.507V439.369H1303.7V458.692L1318.24 473.24H1381.12L1395.67 458.692V418.439L1381.12 403.891H1325.43L1321.19 399.651V378.677L1325.43 374.438H1373.98L1378.18 378.677V390.816H1395.67V371.537L1381.12 356.989H1318.24Z" fill="#00232F"/>
<path d="M1426.86 371.537V473.24H1444.36V419.912H1499.52V402.418H1444.36V378.677L1448.55 374.438H1518.84V356.989H1441.41L1426.86 371.537Z" fill="#00232F"/>
<path d="M1641.96 374.438V356.989H1550.03V374.438H1587.34V455.747H1550.03V473.24H1641.96V455.747H1604.83V374.438H1641.96Z" fill="#00232F"/>
<path d="M1008.72 556.334H955.434V504.478H934.236V624.835H955.434V577.933H1008.72V624.835H1030.32V504.478H1008.72V556.334Z" fill="#0CC2FF"/>
<path d="M826.821 504.478L811.068 520.187V609.082L826.821 624.835H891.395L907.148 609.082V581.905H885.549V600.201L882.514 603.236H835.702L832.667 600.201V529.067L835.702 526.033H882.514L885.549 529.067V547.409H907.148V520.187L891.395 504.478H826.821Z" fill="#0CC2FF"/>
<path d="M1180.53 526.033H1217.88V603.236H1180.53V624.835H1276.61V603.236H1239.43V526.033H1276.61V504.478H1180.53V526.033Z" fill="#0CC2FF"/>
<path d="M1378.18 504.478V584.404L1324.31 504.478H1303.7V624.835H1325.3V544.553L1379.16 624.835H1399.78V504.478H1378.18Z" fill="#0CC2FF"/>
<path d="M1073.11 504.478L1057.36 520.187V624.79H1078.96V590.964H1131.89V624.79H1153.44V520.187L1137.73 504.478H1073.11ZM1078.96 569.365V529.201L1081.99 526.167H1128.85L1131.89 529.201V569.365H1078.96Z" fill="#0CC2FF"/>
</svg>
