<svg width="2008" height="983" viewBox="0 0 2008 983" fill="none" xmlns="http://www.w3.org/2000/svg">
<path fill-rule="evenodd" clip-rule="evenodd" d="M727.885 381.415L660.365 329.381L658.402 327.864H568.658L566.65 329.381L548.309 343.528L529.7 329.158L527.692 327.641H437.993L435.985 329.158L368.51 381.237L365.609 383.423V482.538L367.127 484.502L387.075 510.608L367.127 536.67L365.609 538.678V598.789L368.51 601.02L435.985 653.054L437.993 654.617H527.692L529.7 653.054L548.041 638.908L566.65 653.278L568.658 654.84H658.402L660.365 653.278L727.885 601.244L730.741 599.012V538.901L729.224 536.893L709.276 510.831L729.224 484.725L730.741 482.761V383.646L727.885 381.415ZM433.084 632.125L380.426 591.515V543.676L402.292 515.115L405.729 510.653L402.292 506.19L380.426 477.584V402.122L433.084 442.776V632.125ZM517.874 639.801H447.99V446.525H517.874V639.801ZM563.884 632.348L552.638 623.691L548.175 620.21L543.713 623.691L532.735 632.125V442.776L548.22 430.816L563.973 442.999L563.884 632.348ZM648.673 640.024H578.833V446.748H648.673V640.024ZM653.582 431.932H573.925L560.537 421.49L605.118 387.083L597.532 381.237L575.219 364.189L563.08 373.516L580.663 386.904L552.459 408.682L547.996 411.939L535.858 421.311L522.47 431.53H442.858L384.844 386.904L442.858 342.278H522.47L535.858 352.72L498.819 381.237L491.232 387.127L498.819 392.973L521.132 410.021L533.27 400.694L515.687 387.306L560.358 352.899L573.746 342.68H653.404L711.418 387.306L653.582 431.932ZM716.059 477.718L694.192 506.324L690.756 510.786L694.192 515.249L716.059 543.81V591.649L663.4 632.259V442.999L716.059 402.345V477.718Z" fill="black"/>
<path d="M825.616 357.317L811.068 371.865V459.02L825.616 473.568H888.494L903.042 459.02V434.743H885.549V451.835L881.31 456.075H832.756L828.561 451.835V379.005L832.756 374.766H881.31L885.549 379.005V396.142H903.042V371.865L888.494 357.317H825.616Z" fill="black"/>
<path d="M934.236 357.317V473.568H951.685V434.743H962.752L1001.53 473.568H1026.21L987.386 434.743H1011.66L1026.21 420.195V371.821L1011.66 357.317H934.236ZM1008.72 413.055L1004.48 417.25H951.685V374.766H1004.48L1008.72 379.228V413.055Z" fill="black"/>
<path d="M1071.91 357.317L1057.4 371.821V459.02L1071.91 473.568H1134.83L1149.33 459.02V371.821L1134.83 357.317H1071.91ZM1131.89 451.835L1127.65 456.075H1079.32L1074.85 451.835V378.961L1079.32 374.498H1127.87L1132.11 378.961L1131.89 451.835Z" fill="black"/>
<path d="M1195.08 357.317L1180.53 371.865V407.164L1195.08 421.668H1250.81L1255.05 425.907V451.835L1250.81 456.075H1202.26L1198.02 451.835V439.697H1180.53V459.02L1195.08 473.568H1258L1272.5 459.02V418.767L1258 404.219H1202.26L1198.02 399.98V379.005L1202.26 374.766H1250.81L1255.05 379.005V391.144H1272.5V371.865L1258 357.317H1195.08Z" fill="black"/>
<path d="M1318.24 357.317L1303.7 371.865V407.164L1318.24 421.668H1373.98L1378.18 425.907V451.835L1373.98 456.075H1325.43L1321.19 451.835V439.697H1303.7V459.02L1318.24 473.568H1381.12L1395.67 459.02V418.767L1381.12 404.219H1325.43L1321.19 399.98V379.005L1325.43 374.766H1373.98L1378.18 379.005V391.144H1395.67V371.865L1381.12 357.317H1318.24Z" fill="black"/>
<path d="M1426.86 371.865V473.568H1444.36V420.24H1499.52V402.746H1444.36V379.005L1448.55 374.766H1518.84V357.317H1441.41L1426.86 371.865Z" fill="black"/>
<path d="M1641.96 374.766V357.317H1550.03V374.766H1587.34V456.075H1550.03V473.568H1641.96V456.075H1604.83V374.766H1641.96Z" fill="black"/>
<path d="M1008.72 556.662H955.434V504.806H934.236V625.163H955.434V578.261H1008.72V625.163H1030.32V504.806H1008.72V556.662Z" fill="black"/>
<path d="M826.821 504.806L811.068 520.515V609.41L826.821 625.163H891.395L907.148 609.41V582.233H885.549V600.53L882.514 603.564H835.702L832.667 600.53V529.395L835.702 526.361H882.514L885.549 529.395V547.737H907.148V520.515L891.395 504.806H826.821Z" fill="black"/>
<path d="M1180.53 526.361H1217.88V603.564H1180.53V625.163H1276.61V603.564H1239.43V526.361H1276.61V504.806H1180.53V526.361Z" fill="black"/>
<path d="M1378.18 504.806V584.732L1324.31 504.806H1303.7V625.163H1325.3V544.881L1379.16 625.163H1399.78V504.806H1378.18Z" fill="black"/>
<path d="M1073.11 504.806L1057.36 520.515V625.118H1078.96V591.292H1131.89V625.118H1153.44V520.515L1137.73 504.806H1073.11ZM1078.96 569.693V529.529L1081.99 526.495H1128.85L1131.89 529.529V569.693H1078.96Z" fill="black"/>
</svg>
