<svg width="1096" height="982" viewBox="0 0 1096 982" fill="none" xmlns="http://www.w3.org/2000/svg">
<path fill-rule="evenodd" clip-rule="evenodd" d="M727.885 380.972L660.365 328.938L658.402 327.42H568.658L566.65 328.938L548.309 343.084L529.7 328.715L527.692 327.197H437.993L435.985 328.715L368.51 380.793L365.609 382.98V482.095L367.127 484.058L387.075 510.164L367.127 536.226L365.609 538.234V598.346L368.51 600.577L435.985 652.611L437.993 654.173H527.692L529.7 652.611L548.041 638.465L566.65 652.834L568.658 654.396H658.402L660.365 652.834L727.885 600.8L730.741 598.569V538.458L729.224 536.449L709.276 510.388L729.224 484.281L730.741 482.318V383.203L727.885 380.972ZM433.084 631.681L380.426 591.072V543.232L402.292 514.672L405.729 510.209L402.292 505.747L380.426 477.141V401.678L433.084 442.333V631.681ZM517.874 639.357H447.99V446.081H517.874V639.357ZM563.884 631.905L552.638 623.247L548.175 619.766L543.713 623.247L532.735 631.681V442.333L548.22 430.373L563.973 442.556L563.884 631.905ZM648.673 639.58H578.833V446.304H648.673V639.58ZM653.582 431.489H573.925L560.537 421.046L605.118 386.639L597.532 380.793L575.219 363.746L563.08 373.073L580.663 386.461L552.459 408.238L547.996 411.496L535.858 420.868L522.47 431.087H442.858L384.844 386.461L442.858 341.835H522.47L535.858 352.277L498.819 380.793L491.232 386.684L498.819 392.53L521.132 409.577L533.27 400.25L515.687 386.862L560.358 352.456L573.746 342.236H653.404L711.418 386.862L653.582 431.489ZM716.059 477.275L694.192 505.88L690.756 510.343L694.192 514.805L716.059 543.366V591.205L663.4 631.815V442.556L716.059 401.901V477.275Z" fill="white"/>
</svg>
