<svg width="1096" height="983" viewBox="0 0 1096 983" fill="none" xmlns="http://www.w3.org/2000/svg">
<path fill-rule="evenodd" clip-rule="evenodd" d="M727.885 381.415L660.365 329.381L658.402 327.864H568.658L566.65 329.381L548.309 343.528L529.7 329.158L527.692 327.641H437.993L435.985 329.158L368.51 381.237L365.609 383.423V482.538L367.127 484.502L387.075 510.608L367.127 536.67L365.609 538.678V598.789L368.51 601.02L435.985 653.054L437.993 654.617H527.692L529.7 653.054L548.041 638.908L566.65 653.278L568.658 654.84H658.402L660.365 653.278L727.885 601.244L730.741 599.012V538.901L729.224 536.893L709.276 510.831L729.224 484.725L730.741 482.761V383.646L727.885 381.415ZM433.084 632.125L380.426 591.515V543.676L402.292 515.115L405.729 510.653L402.292 506.19L380.426 477.584V402.122L433.084 442.776V632.125ZM517.874 639.801H447.99V446.525H517.874V639.801ZM563.884 632.348L552.638 623.691L548.175 620.21L543.713 623.691L532.735 632.125V442.776L548.22 430.816L563.973 442.999L563.884 632.348ZM648.673 640.024H578.833V446.748H648.673V640.024ZM653.582 431.932H573.925L560.537 421.49L605.118 387.083L597.532 381.237L575.219 364.189L563.08 373.516L580.663 386.904L552.459 408.682L547.996 411.939L535.858 421.311L522.47 431.53H442.858L384.844 386.904L442.858 342.278H522.47L535.858 352.72L498.819 381.237L491.232 387.127L498.819 392.973L521.132 410.021L533.27 400.694L515.687 387.306L560.358 352.899L573.746 342.68H653.404L711.418 387.306L653.582 431.932ZM716.059 477.718L694.192 506.324L690.756 510.786L694.192 515.249L716.059 543.81V591.649L663.4 632.259V442.999L716.059 402.345V477.718Z" fill="black"/>
</svg>
