<svg width="1100" height="1146" viewBox="0 0 1100 1146" fill="none" xmlns="http://www.w3.org/2000/svg">
<path d="M373.008 700.799L366.586 707.221V745.694L373.008 752.116H400.764L407.186 745.694V734.978H399.464V742.522L397.593 744.394H376.16L374.308 742.522V710.373L376.16 708.502H397.593L399.464 710.373V717.938H407.186V707.221L400.764 700.799H373.008Z" fill="white"/>
<path d="M420.956 700.799V752.116H428.658V734.978H433.544L450.662 752.116H461.556L444.418 734.978H455.134L461.556 728.556V707.202L455.134 700.799H420.956ZM453.834 725.404L451.963 727.256H428.658V708.502H451.963L453.834 710.472V725.404Z" fill="white"/>
<path d="M481.728 700.799L475.326 707.202V745.694L481.728 752.116H509.504L515.906 745.694V707.202L509.504 700.799H481.728ZM508.204 742.522L506.333 744.394H484.998L483.028 742.522V710.354L484.998 708.384H506.431L508.302 710.354L508.204 742.522Z" fill="white"/>
<path d="M536.098 700.799L529.676 707.221V722.803L536.098 729.206H560.703L562.574 731.077V742.522L560.703 744.394H539.27L537.398 742.522V737.164H529.676V745.694L536.098 752.116H563.874L570.276 745.694V727.925L563.874 721.503H539.27L537.398 719.632V710.373L539.27 708.502H560.703L562.574 710.373V715.731H570.276V707.221L563.874 700.799H536.098Z" fill="white"/>
<path d="M590.468 700.799L584.046 707.221V722.803L590.468 729.206H615.073L616.924 731.077V742.522L615.073 744.394H593.64L591.768 742.522V737.164H584.046V745.694L590.468 752.116H618.224L624.646 745.694V727.925L618.224 721.503H593.64L591.768 719.632V710.373L593.64 708.502H615.073L616.924 710.373V715.731H624.646V707.221L618.224 700.799H590.468Z" fill="white"/>
<path d="M638.416 707.221V752.116H646.138V728.575H670.487V720.853H646.138V710.373L647.99 708.502H679.016V700.799H644.838L638.416 707.221Z" fill="white"/>
<path d="M733.367 708.502V700.799H692.786V708.502H709.255V744.394H692.786V752.116H733.367V744.394H716.977V708.502H733.367Z" fill="white"/>
<path d="M453.834 788.796H430.313V765.905H420.956V819.034H430.313V798.33H453.834V819.034H463.368V765.905H453.834V788.796Z" fill="white"/>
<path d="M373.54 765.905L366.586 772.84V812.081L373.54 819.034H402.045L408.998 812.081V800.084H399.464V808.16L398.124 809.5H377.46L376.12 808.16V776.76L377.46 775.42H398.124L399.464 776.76V784.856H408.998V772.84L402.045 765.905H373.54Z" fill="white"/>
<path d="M529.676 775.42H546.164V809.5H529.676V819.034H572.089V809.5H555.679V775.42H572.089V765.905H529.676V775.42Z" fill="white"/>
<path d="M616.924 765.905V801.187L593.147 765.905H584.046V819.034H593.581V783.595L617.358 819.034H626.459V765.905H616.924Z" fill="white"/>
<path d="M482.26 765.905L475.306 772.84V819.015H484.841V804.083H508.204V819.015H517.719V772.84L510.785 765.905H482.26ZM484.841 794.548V776.819L486.18 775.479H506.864L508.204 776.819V794.548H484.841Z" fill="white"/>
<path d="M733.367 383.031L731.186 381.328L661.181 327.176H571.388L569.845 328.346L550.11 343.56L528.565 326.963H438.798L437.255 328.107L366.586 382.632V481.708L367.729 483.197L388.848 510.832L366.586 540.09V599.536L438.798 655.231H528.539L549.817 638.794L571.361 655.47H661.155L662.618 654.273L733.341 599.775V540.17L732.17 538.627L711.079 511.072L733.341 481.947L733.367 383.031ZM435.048 638.049L377.89 593.95V543.76L378.262 543.255L403.051 510.886L400.391 507.481L377.837 477.958V396.941L434.995 441.093L435.048 638.049ZM521.091 643.901H446.432V443.939H521.091V643.901ZM567.77 638.262L549.977 624.537L532.422 638.049V441.226L550.003 427.635L567.877 441.439L567.77 638.262ZM653.814 644.14H579.207V444.205H653.814V644.14ZM657.564 432.981H575.457L559.499 420.507L604.715 385.584L577.452 364.732L568.196 371.833L586.043 385.398L555.482 408.99L550.934 412.315L524.549 432.556H442.496L441.99 432.183L381.188 385.425L383.103 383.935L442.496 338.267H524.549L540.508 350.741L495.292 385.637L522.581 406.517L531.81 399.415L513.99 385.823L575.351 338.666H657.431L657.937 339.065L718.738 385.823L657.564 432.981ZM722.196 478.197L697.008 511.125L722.196 544V594.11L721.478 594.668L665.011 638.182V441.359L665.756 440.801L722.196 397.207V478.197Z" fill="white"/>
</svg>
