<svg width="1100" height="1147" viewBox="0 0 1100 1147" fill="none" xmlns="http://www.w3.org/2000/svg">
<path d="M372.031 701.149L365.609 707.571V746.044L372.031 752.466H399.788L406.21 746.044V735.327H398.487V742.872L396.616 744.743H375.183L373.331 742.872V710.723L375.183 708.851H396.616L398.487 710.723V718.287H406.21V707.571L399.788 701.149H372.031Z" fill="#00232F"/>
<path d="M419.979 701.149V752.466H427.682V735.327H432.567L449.686 752.466H460.579L443.441 735.327H454.158L460.579 728.905V707.551L454.158 701.149H419.979ZM452.857 725.753L450.986 727.605H427.682V708.851H450.986L452.857 710.821V725.753Z" fill="#00232F"/>
<path d="M480.752 701.149L474.349 707.551V746.044L480.752 752.466H508.528L514.93 746.044V707.551L508.528 701.149H480.752ZM507.227 742.872L505.356 744.743H484.022L482.052 742.872V710.703L484.022 708.733H505.454L507.326 710.703L507.227 742.872Z" fill="#00232F"/>
<path d="M535.122 701.149L528.7 707.571V723.153L535.122 729.555H559.726L561.597 731.427V742.872L559.726 744.743H538.293L536.422 742.872V737.514H528.7V746.044L535.122 752.466H562.898L569.3 746.044V728.275L562.898 721.853H538.293L536.422 719.981V710.723L538.293 708.851H559.726L561.597 710.723V716.081H569.3V707.571L562.898 701.149H535.122Z" fill="#00232F"/>
<path d="M589.492 701.149L583.07 707.571V723.153L589.492 729.555H614.096L615.948 731.427V742.872L614.096 744.743H592.663L590.792 742.872V737.514H583.07V746.044L589.492 752.466H617.248L623.67 746.044V728.275L617.248 721.853H592.663L590.792 719.981V710.723L592.663 708.851H614.096L615.948 710.723V716.081H623.67V707.571L617.248 701.149H589.492Z" fill="#00232F"/>
<path d="M637.44 707.571V752.466H645.162V728.925H669.51V721.203H645.162V710.723L647.013 708.851H678.04V701.149H643.862L637.44 707.571Z" fill="#00232F"/>
<path d="M732.39 708.851V701.149H691.81V708.851H708.278V744.743H691.81V752.466H732.39V744.743H716V708.851H732.39Z" fill="#00232F"/>
<path d="M452.857 789.146H429.337V766.255H419.979V819.384H429.337V798.68H452.857V819.384H462.392V766.255H452.857V789.146Z" fill="#0CC2FF"/>
<path d="M372.563 766.255L365.609 773.189V812.43L372.563 819.384H401.068L408.022 812.43V800.433H398.487V808.51L397.148 809.85H376.483L375.144 808.51V777.109L376.483 775.77H397.148L398.487 777.109V785.206H408.022V773.189L401.068 766.255H372.563Z" fill="#0CC2FF"/>
<path d="M528.7 775.77H545.188V809.85H528.7V819.384H571.112V809.85H554.703V775.77H571.112V766.255H528.7V775.77Z" fill="#0CC2FF"/>
<path d="M615.948 766.255V801.536L592.171 766.255H583.07V819.384H592.604V783.945L616.381 819.384H625.482V766.255H615.948Z" fill="#0CC2FF"/>
<path d="M481.283 766.255L474.33 773.189V819.364H483.864V804.432H507.227V819.364H516.742V773.189L509.808 766.255H481.283ZM483.864 794.898V777.168L485.204 775.829H505.888L507.227 777.168V794.898H483.864Z" fill="#0CC2FF"/>
<path d="M732.391 383.38L730.209 381.678L660.205 327.525H570.411L568.868 328.696L549.133 343.909L527.589 327.312H437.822L436.279 328.456L365.609 382.981V482.058L366.753 483.547L387.871 511.182L365.609 540.439V599.885L437.822 655.581H527.562L548.84 639.143L570.385 655.82H660.178L661.641 654.623L732.364 600.125V540.519L731.194 538.977L710.102 511.421L732.364 482.297L732.391 383.38ZM434.072 638.399L376.913 594.3V544.11L377.285 543.605L402.075 511.235L399.415 507.831L376.86 478.307V397.291L434.018 441.443L434.072 638.399ZM520.115 644.25H445.456V444.289H520.115V644.25ZM566.794 638.611L549 624.887L531.445 638.399V441.576L549.027 427.985L566.9 441.789L566.794 638.611ZM652.837 644.489H578.231V444.555H652.837V644.489ZM656.587 433.331H574.481L558.522 420.857L603.738 385.934L576.476 365.081L567.22 372.183L585.067 385.748L554.506 409.34L549.958 412.664L523.572 432.905H441.519L441.013 432.533L380.211 385.774L382.126 384.285L441.519 338.616H523.572L539.531 351.091L494.315 385.987L521.604 406.866L530.834 399.764L513.013 386.173L574.374 339.016H656.454L656.96 339.414L717.762 386.173L656.587 433.331ZM721.22 478.547L696.032 511.475L721.22 544.349V594.459L720.502 595.018L664.035 638.532V441.709L664.78 441.15L721.22 397.557V478.547Z" fill="#0CC2FF"/>
</svg>
