<svg width="1100" height="1147" viewBox="0 0 1100 1147" fill="none" xmlns="http://www.w3.org/2000/svg">
<path d="M373.008 701.243L366.586 707.665V746.137L373.008 752.559H400.764L407.186 746.137V735.421H399.464V742.966L397.593 744.837H376.16L374.308 742.966V710.817L376.16 708.945H397.593L399.464 710.817V718.381H407.186V707.665L400.764 701.243H373.008Z" fill="black"/>
<path d="M420.956 701.243V752.559H428.658V735.421H433.544L450.662 752.559H461.556L444.418 735.421H455.134L461.556 728.999V707.645L455.134 701.243H420.956ZM453.834 725.847L451.963 727.699H428.658V708.945H451.963L453.834 710.915V725.847Z" fill="black"/>
<path d="M481.728 701.243L475.326 707.645V746.137L481.728 752.559H509.504L515.906 746.137V707.645L509.504 701.243H481.728ZM508.204 742.966L506.333 744.837H484.998L483.028 742.966V710.797L484.998 708.827H506.431L508.302 710.797L508.204 742.966Z" fill="black"/>
<path d="M536.098 701.243L529.676 707.665V723.247L536.098 729.649H560.703L562.574 731.521V742.966L560.703 744.837H539.27L537.398 742.966V737.608H529.676V746.137L536.098 752.559H563.874L570.276 746.137V728.369L563.874 721.947H539.27L537.398 720.075V710.817L539.27 708.945H560.703L562.574 710.817V716.175H570.276V707.665L563.874 701.243H536.098Z" fill="black"/>
<path d="M590.468 701.243L584.046 707.665V723.247L590.468 729.649H615.073L616.924 731.521V742.966L615.073 744.837H593.64L591.768 742.966V737.608H584.046V746.137L590.468 752.559H618.224L624.646 746.137V728.369L618.224 721.947H593.64L591.768 720.075V710.817L593.64 708.945H615.073L616.924 710.817V716.175H624.646V707.665L618.224 701.243H590.468Z" fill="black"/>
<path d="M638.416 707.665V752.559H646.138V729.019H670.487V721.297H646.138V710.817L647.99 708.945H679.016V701.243H644.838L638.416 707.665Z" fill="black"/>
<path d="M733.367 708.945V701.243H692.786V708.945H709.255V744.837H692.786V752.559H733.367V744.837H716.977V708.945H733.367Z" fill="black"/>
<path d="M453.834 789.239H430.313V766.349H420.956V819.478H430.313V798.774H453.834V819.478H463.368V766.349H453.834V789.239Z" fill="black"/>
<path d="M373.54 766.349L366.586 773.283V812.524L373.54 819.478H402.045L408.998 812.524V800.527H399.464V808.604L398.124 809.943H377.46L376.12 808.604V777.203L377.46 775.864H398.124L399.464 777.203V785.299H408.998V773.283L402.045 766.349H373.54Z" fill="black"/>
<path d="M529.676 775.864H546.164V809.943H529.676V819.478H572.089V809.943H555.679V775.864H572.089V766.349H529.676V775.864Z" fill="black"/>
<path d="M616.924 766.349V801.63L593.147 766.349H584.046V819.478H593.581V784.039L617.358 819.478H626.459V766.349H616.924Z" fill="black"/>
<path d="M482.26 766.349L475.306 773.283V819.458H484.841V804.526H508.204V819.458H517.719V773.283L510.785 766.349H482.26ZM484.841 794.992V777.262L486.18 775.923H506.864L508.204 777.262V794.992H484.841Z" fill="black"/>
<path d="M733.367 383.474L731.186 381.772L661.181 327.619H571.388L569.845 328.789L550.11 344.003L528.565 327.406H438.798L437.255 328.55L366.586 383.075V482.151L367.729 483.641L388.848 511.276L366.586 540.533V599.979L438.798 655.674H528.539L549.817 639.237L571.361 655.914H661.155L662.618 654.717L733.341 600.218V540.613L732.17 539.07L711.079 511.515L733.341 482.391L733.367 383.474ZM435.048 638.492L377.89 594.393V544.204L378.262 543.698L403.051 511.329L400.391 507.924L377.837 478.401V397.385L434.995 441.537L435.048 638.492ZM521.091 644.344H446.432V444.383H521.091V644.344ZM567.77 638.705L549.977 624.981L532.422 638.492V441.67L550.003 428.078L567.877 441.883L567.77 638.705ZM653.814 644.583H579.207V444.649H653.814V644.583ZM657.564 433.425H575.457L559.499 420.95L604.715 386.028L577.452 365.175L568.196 372.276L586.043 385.841L555.482 409.433L550.934 412.758L524.549 432.999H442.496L441.99 432.627L381.188 385.868L383.103 384.379L442.496 338.71H524.549L540.508 351.185L495.292 386.081L522.581 406.96L531.81 399.858L513.99 386.267L575.351 339.109H657.431L657.937 339.508L718.738 386.267L657.564 433.425ZM722.196 478.641L697.008 511.568L722.196 544.443V594.553L721.478 595.112L665.011 638.625V441.803L665.756 441.244L722.196 397.651V478.641Z" fill="black"/>
</svg>
