<svg width="1100" height="1147" viewBox="0 0 1100 1147" fill="none" xmlns="http://www.w3.org/2000/svg">
<path d="M372.031 701.59L365.609 708.012V746.485L372.031 752.907H399.788L406.21 746.485V735.769H398.487V743.313L396.616 745.185H375.183L373.331 743.313V711.164L375.183 709.293H396.616L398.487 711.164V718.729H406.21V708.012L399.788 701.59H372.031Z" fill="white"/>
<path d="M419.979 701.59V752.907H427.682V735.769H432.567L449.686 752.907H460.579L443.441 735.769H454.158L460.579 729.347V707.993L454.158 701.59H419.979ZM452.857 726.195L450.986 728.047H427.682V709.293H450.986L452.857 711.263V726.195Z" fill="white"/>
<path d="M480.752 701.59L474.349 707.993V746.485L480.752 752.907H508.528L514.93 746.485V707.993L508.528 701.59H480.752ZM507.227 743.313L505.356 745.185H484.022L482.052 743.313V711.145L484.022 709.175H505.454L507.326 711.145L507.227 743.313Z" fill="white"/>
<path d="M535.122 701.59L528.7 708.012V723.594L535.122 729.997H559.726L561.597 731.868V743.313L559.726 745.185H538.293L536.422 743.313V737.955H528.7V746.485L535.122 752.907H562.898L569.3 746.485V728.716L562.898 722.294H538.293L536.422 720.423V711.164L538.293 709.293H559.726L561.597 711.164V716.522H569.3V708.012L562.898 701.59H535.122Z" fill="white"/>
<path d="M589.492 701.59L583.07 708.012V723.594L589.492 729.997H614.096L615.948 731.868V743.313L614.096 745.185H592.663L590.792 743.313V737.955H583.07V746.485L589.492 752.907H617.248L623.67 746.485V728.716L617.248 722.294H592.663L590.792 720.423V711.164L592.663 709.293H614.096L615.948 711.164V716.522H623.67V708.012L617.248 701.59H589.492Z" fill="white"/>
<path d="M637.44 708.012V752.907H645.162V729.366H669.51V721.644H645.162V711.164L647.013 709.293H678.04V701.59H643.862L637.44 708.012Z" fill="white"/>
<path d="M732.39 709.293V701.59H691.81V709.293H708.278V745.185H691.81V752.907H732.39V745.185H716V709.293H732.39Z" fill="white"/>
<path d="M452.857 789.587H429.337V766.696H419.979V819.825H429.337V799.121H452.857V819.825H462.392V766.696H452.857V789.587Z" fill="#0CC2FF"/>
<path d="M372.563 766.696L365.609 773.631V812.871L372.563 819.825H401.068L408.022 812.871V800.875H398.487V808.951L397.148 810.291H376.483L375.144 808.951V777.551L376.483 776.211H397.148L398.487 777.551V785.647H408.022V773.631L401.068 766.696H372.563Z" fill="#0CC2FF"/>
<path d="M528.7 776.211H545.188V810.291H528.7V819.825H571.112V810.291H554.703V776.211H571.112V766.696H528.7V776.211Z" fill="#0CC2FF"/>
<path d="M615.948 766.696V801.978L592.171 766.696H583.07V819.825H592.604V784.386L616.381 819.825H625.482V766.696H615.948Z" fill="#0CC2FF"/>
<path d="M481.283 766.696L474.33 773.631V819.806H483.864V804.874H507.227V819.806H516.742V773.631L509.808 766.696H481.283ZM483.864 795.339V777.61L485.204 776.27H505.888L507.227 777.61V795.339H483.864Z" fill="#0CC2FF"/>
<path d="M732.391 383.822L730.209 382.119L660.205 327.967H570.411L568.868 329.137L549.133 344.351L527.589 327.754H437.822L436.279 328.898L365.609 383.423V482.499L366.753 483.988L387.871 511.623L365.609 540.881V600.327L437.822 656.022H527.562L548.84 639.585L570.385 656.261H660.178L661.641 655.064L732.364 600.566V540.961L731.194 539.418L710.102 511.863L732.364 482.738L732.391 383.822ZM434.072 638.84L376.913 594.741V544.551L377.285 544.046L402.075 511.677L399.415 508.272L376.86 478.749V397.732L434.018 441.884L434.072 638.84ZM520.115 644.691H445.456V444.73H520.115V644.691ZM566.794 639.053L549 625.328L531.445 638.84V442.017L549.027 428.426L566.9 442.23L566.794 639.053ZM652.837 644.931H578.231V444.996H652.837V644.931ZM656.587 433.772H574.481L558.522 421.298L603.738 386.375L576.476 365.523L567.22 372.624L585.067 386.189L554.506 409.781L549.958 413.106L523.572 433.347H441.519L441.013 432.974L380.211 386.216L382.126 384.726L441.519 339.058H523.572L539.531 351.532L494.315 386.428L521.604 407.308L530.834 400.206L513.013 386.615L574.374 339.457H656.454L656.96 339.856L717.762 386.615L656.587 433.772ZM721.22 478.988L696.032 511.916L721.22 544.791V594.901L720.502 595.459L664.035 638.973V442.15L664.78 441.592L721.22 397.998V478.988Z" fill="#0CC2FF"/>
</svg>
